# xmcd
#
# Track frame offsets:
#	150
#	18412
#	34600
#	48770
#	64357
#	80090
#	96322
#	110045
#	127122
#	145772
#	163832
#	181197
#	196582
#	212415
#	232440
#	250000
#	266752
#
# Disc length: 3757 seconds
#
# Revision: 5
# Processed by: cddbd v1.4PL0 Copyright (c) Steve Scherf et al.
# Submitted via: dBpowerAMP V4.0
#
DISCID=f50eab11
DTITLE=Stelios Rokoò - Bimata
DYEAR=1900
DGENRE=Other
TTITLE0=Tora Eine Entaxei
TTITLE1=Afou Thn Agapas
TTITLE2=Pes Pos Hmoun Oneiro
TTITLE3=Ena Vima Prin Ton Gremo
TTITLE4=Na Mhn Me Psaxeis To Proi
TTITLE5=Ti Na Mmou Poune Oloi Aytoi
TTITLE6=Pwna Me
TTITLE7=Vimata
TTITLE8=Ola 8a Allaxoune
TTITLE9=Ta Xw Mazi Sou
TTITLE10=8a Pw Gia Sena
TTITLE11=H Agalitsa Sou
TTITLE12=Alli Agapi
TTITLE13=Ematha Na Fevgw
TTITLE14=8a H8ela Na Hmoun
TTITLE15=Mia Gratzounia
TTITLE16=Allitisa Psixi
EXTD=my name MARKOS DIMITRIS
EXTT0=
EXTT1=
EXTT2=
EXTT3=
EXTT4=
EXTT5=
EXTT6=
EXTT7=
EXTT8=
EXTT9=
EXTT10=
EXTT11=
EXTT12=
EXTT13=
EXTT14=
EXTT15=
EXTT16=
PLAYORDER=
